<?xml version="1.0" encoding="utf-8"?>
<!-- Generator: Adobe Illustrator 16.0.5, SVG Export Plug-In . SVG Version: 6.00 Build 0)  -->
<!DOCTYPE svg PUBLIC "-//W3C//DTD SVG 1.1//EN" "http://www.w3.org/Graphics/SVG/1.1/DTD/svg11.dtd">
<svg version="1.1" id="Layer_1" focusable="false" xmlns="http://www.w3.org/2000/svg" xmlns:xlink="http://www.w3.org/1999/xlink"
	 x="0px" y="0px" width="595.279px" height="841.891px" viewBox="0 0 595.279 841.891" enable-background="new 0 0 595.279 841.891"
	 xml:space="preserve">
<path fill="#FFFFFF" d="M21.26,256.18h552.76c11.742,0,21.26-9.518,21.26-21.26v-53.15c0-11.742-9.518-21.26-21.26-21.26H21.26
	C9.518,160.51,0,170.028,0,181.77v53.15C0,246.662,9.518,256.18,21.26,256.18z M21.26,468.78h552.76
	c11.742,0,21.26-9.518,21.26-21.26v-53.15c0-11.742-9.518-21.26-21.26-21.26H21.26C9.518,373.11,0,382.628,0,394.37v53.15
	C0,459.263,9.518,468.78,21.26,468.78z M21.26,681.38h552.76c11.742,0,21.26-9.518,21.26-21.26v-53.15
	c0-11.742-9.518-21.26-21.26-21.26H21.26C9.518,585.71,0,595.228,0,606.97v53.15C0,671.862,9.518,681.38,21.26,681.38z"/>
</svg>
