<?xml version="1.0" encoding="utf-8"?>
<!-- Generator: Adobe Illustrator 16.0.5, SVG Export Plug-In . SVG Version: 6.00 Build 0)  -->
<!DOCTYPE svg PUBLIC "-//W3C//DTD SVG 1.1//EN" "http://www.w3.org/Graphics/SVG/1.1/DTD/svg11.dtd">
<svg version="1.1" id="Layer_1" xmlns="http://www.w3.org/2000/svg" xmlns:xlink="http://www.w3.org/1999/xlink" x="0px" y="0px"
	 width="18px" height="18px" viewBox="0 0 18 18" enable-background="new 0 0 18 18" xml:space="preserve">
<title>S_Help_18_N@2x</title>
<rect id="Canvas" fill="#FF13DC" fill-opacity="0" width="18" height="18"/>
<path fill="#FF6161" d="M9,1C4.582,1,1,4.582,1,9c0,4.418,3.582,8,8,8c4.418,0,8-3.582,8-8C17,4.582,13.418,1,9,1z M9.023,14.438
	c-0.742,0.033-1.37-0.543-1.402-1.285C7.59,12.41,8.166,11.783,8.908,11.75c0.039-0.002,0.077-0.002,0.116,0
	c0.722-0.049,1.348,0.496,1.397,1.217c0.003,0.039,0.003,0.079,0.003,0.119c0.037,0.711-0.511,1.318-1.222,1.355
	C9.142,14.443,9.083,14.443,9.023,14.438z M10.807,8.029l-0.1,0.105C10.312,8.548,9.864,9.018,9.864,9.31
	c0.001,0.236,0.063,0.468,0.179,0.674l0.074,0.14l-0.057,0.214c-0.049,0.114-0.16,0.188-0.284,0.188H8.436
	c-0.12,0.008-0.238-0.035-0.325-0.117c-0.277-0.362-0.425-0.807-0.422-1.262c0-0.839,0.467-1.357,1.112-2.075
	c0.1-0.109,0.196-0.21,0.288-0.305c0.314-0.325,0.507-0.535,0.507-0.758c0-0.153,0-0.622-0.893-0.622
	c-0.56,0.001-1.107,0.16-1.58,0.46c-0.101,0.061-0.229,0.057-0.327-0.01L6.678,5.751L6.65,5.53V4.08
	C6.634,3.917,6.71,3.759,6.847,3.67C7.5,3.294,8.244,3.104,8.997,3.12c1.646,0,2.75,1.059,2.75,2.636
	C11.765,6.612,11.424,7.436,10.807,8.029z"/>
</svg>
