<?xml version="1.0" encoding="utf-8"?>
<!-- Generator: Adobe Illustrator 16.0.5, SVG Export Plug-In . SVG Version: 6.00 Build 0)  -->
<!DOCTYPE svg PUBLIC "-//W3C//DTD SVG 1.1//EN" "http://www.w3.org/Graphics/SVG/1.1/DTD/svg11.dtd">
<svg version="1.1" id="Layer_1" focusable="false" xmlns="http://www.w3.org/2000/svg" xmlns:xlink="http://www.w3.org/1999/xlink"
	 x="0px" y="0px" width="595.279px" height="841.891px" viewBox="0 0 595.279 841.891" enable-background="new 0 0 595.279 841.891"
	 xml:space="preserve">
<path fill="#FFFFFF" d="M148.82,258.173v-46.506c0-10.274,8.328-18.603,18.603-18.603h409.256c10.273,0,18.602,8.328,18.602,18.603
	v46.506c0,10.274-8.328,18.603-18.602,18.603H167.422C157.148,276.775,148.82,268.447,148.82,258.173z M167.422,462.801h409.256
	c10.273,0,18.602-8.328,18.602-18.603v-46.506c0-10.275-8.328-18.603-18.602-18.603H167.422c-10.274,0-18.603,8.328-18.603,18.603
	v46.506C148.82,454.473,157.148,462.801,167.422,462.801z M167.422,648.826h409.256c10.273,0,18.602-8.328,18.602-18.603v-46.507
	c0-10.274-8.328-18.603-18.602-18.603H167.422c-10.274,0-18.603,8.328-18.603,18.603v46.507
	C148.82,640.498,157.148,648.826,167.422,648.826z M18.603,290.728h74.41c10.274,0,18.603-8.328,18.603-18.603v-74.41
	c0-10.274-8.328-18.603-18.603-18.603h-74.41C8.328,179.112,0,187.44,0,197.715v74.41C0,282.399,8.328,290.728,18.603,290.728z
	 M18.603,476.753h74.41c10.274,0,18.603-8.328,18.603-18.603v-74.41c0-10.274-8.328-18.603-18.603-18.603h-74.41
	C8.328,365.138,0,373.466,0,383.74v74.41C0,468.425,8.328,476.753,18.603,476.753z M18.603,662.777h74.41
	c10.274,0,18.603-8.328,18.603-18.603v-74.409c0-10.275-8.328-18.603-18.603-18.603h-74.41C8.328,551.163,0,559.49,0,569.766v74.409
	C0,654.449,8.328,662.777,18.603,662.777z"/>
</svg>
