<?xml version="1.0" encoding="utf-8"?>
<!-- Generator: Adobe Illustrator 16.0.5, SVG Export Plug-In . SVG Version: 6.00 Build 0)  -->
<!DOCTYPE svg PUBLIC "-//W3C//DTD SVG 1.1//EN" "http://www.w3.org/Graphics/SVG/1.1/DTD/svg11.dtd">
<svg version="1.1" id="Layer_1" xmlns="http://www.w3.org/2000/svg" xmlns:xlink="http://www.w3.org/1999/xlink" x="0px" y="0px"
	 width="1280px" height="800px" viewBox="0 0 1280 800" enable-background="new 0 0 1280 800" xml:space="preserve">
<g>
	<defs>
		<path id="SVGID_1_" d="M165.763,497.363c0-2.48,0-4.961,0-7.439c0.069-0.223,0.179-0.439,0.203-0.666
			c1.317-12.348,6.743-22.514,16.247-30.484c0.818-0.686,1.131-1.352,1.131-2.404c-0.024-51.098-0.021-102.193-0.023-153.289
			c0-0.439-0.025-0.879-0.038-1.317c36.24,0,72.48,0,108.721,0c0.222,0.065,0.442,0.181,0.667,0.19
			c2.394,0.105,4.789,0.17,7.183,0.294c8.992,0.464,17.89,1.515,26.568,4.079c14.396,4.253,26.673,11.746,36.188,23.494
			c0.774,0.956,1.618,1.635,2.781,2.119c14.449,6.002,23.636,16.594,27.452,31.784c0.511,2.035,0.78,4.131,1.161,6.199
			c0,2.721,0,5.441,0,8.16c-0.073,0.217-0.187,0.428-0.215,0.65c-1.965,15.551-9.8,27.171-23.369,34.976
			c-0.622,0.357-1.155,0.941-1.603,1.52c-2.613,3.377-5.116,6.844-7.81,10.156c-1.195,1.469-2.75,2.646-4.196,4.008
			c0.504,0.355,0.729,0.521,0.96,0.676c13.5,9.057,22.932,21.322,28.402,36.564c4.927,13.727,5.945,27.92,4.017,42.309
			c-2.588,19.303-11.247,35.492-25.719,48.482c-7.336,6.586-15.708,11.555-25.263,14.244c-7.69,2.164-15.629,2.846-23.565,3.416
			c-13.923,1-27.873,1.201-41.823,1.225c-29.718,0.049-59.437,0.016-89.155,0.016c-0.421,0-0.842,0-1.343,0c0-0.652,0-1.127,0-1.602
			c0-14.721-0.004-29.439,0.013-44.158c0.001-0.773-0.185-1.299-0.822-1.822c-8.038-6.576-13.283-14.916-15.609-25.051
			C166.425,501.605,166.138,499.475,165.763,497.363z M236.604,530.924c0.769,0,1.208,0,1.646,0c15.399,0,30.8,0.096,46.197-0.043
			c7.587-0.068,15.181-0.408,22.749-0.932c5.902-0.41,11.693-1.635,17.33-3.541c8.331-2.818,13.777-8.283,15.854-16.926
			c1.875-7.805,2.047-15.666,0.67-23.559c-1.001-5.734-3.136-10.977-7.137-15.318c-4.321-4.689-9.774-7.529-15.76-9.438
			c-8.969-2.857-18.229-3.652-27.574-3.674c-17-0.037-33.999-0.012-50.998-0.008c-0.377,0-0.754,0.037-1.305,0.064
			c11.839,9.625,18.079,21.855,17.777,36.979C255.75,509.711,248.976,521.701,236.604,530.924z M317.08,406.4
			c-15.152-17.063-17.438-35.622-7.164-55.845c-0.416-0.101-0.877-0.225-1.344-0.324c-9.659-2.075-19.466-2.666-29.304-2.723
			c-15.593-0.09-31.188-0.023-46.781-0.021c-0.427,0-0.854,0.039-1.327,0.061c0,21.557,0,43.002,0,64.507
			c0.384,0.025,0.695,0.066,1.005,0.064c15.433-0.023,30.866-0.02,46.298-0.09c8.558-0.039,17.085-0.584,25.536-2.029
			C308.494,409.232,312.912,408.18,317.08,406.4z M334.723,373.97c0.004,7.777,6.341,14.145,14.088,14.152
			c7.811,0.01,14.217-6.367,14.229-14.166c0.013-7.725-6.378-14.124-14.128-14.149C341.082,359.782,334.719,366.134,334.723,373.97z
			 M210.792,507.797c7.555,0.203,14.078-6.119,14.288-13.85c0.21-7.734-6.001-14.256-13.77-14.461
			c-7.755-0.205-14.358,6.016-14.546,13.703C196.569,501.135,202.76,507.58,210.792,507.797z"/>
	</defs>
	<clipPath id="SVGID_2_">
		<use xlink:href="#SVGID_1_"  overflow="visible"/>
	</clipPath>
	<rect x="100" y="268" clip-path="url(#SVGID_2_)" fill="#5586FF" width="339" height="401"/>
</g>
</svg>
